<svg xmlns="http://www.w3.org/2000/svg" viewBox="0 0 200 200"><g stroke="#3a3440" stroke-width="4" stroke-linecap="round" stroke-linejoin="round"><line x1="92.2" y1="139.2" x2="84.5" y2="182.7" stroke-width="11.7" stroke="#4a4452"/><circle cx="84.5" cy="182.7" r="6.5" fill="#3a3440" stroke="none"/><line x1="107.8" y1="139.2" x2="115.5" y2="182.7" stroke-width="11.7" stroke="#4a4452"/><circle cx="115.5" cy="182.7" r="6.5" fill="#3a3440" stroke="none"/><rect x="84.4" y="97.6" width="31.2" height="44.2" rx="10.4" fill="#f59e42"/><line x1="85.7" y1="102.8" x2="73.3" y2="134.4" stroke-width="10.4" stroke="#f59e42"/><circle cx="73.3" cy="134.4" r="6.5" fill="#f6c9a0" stroke-width="2.5"/><polyline points="114.3,102.8 97.4,112.5 94.3,94.6" fill="none" stroke-width="10.4" stroke="#f59e42"/><circle cx="94.3" cy="94.6" r="6.5" fill="#f6c9a0" stroke-width="2.5"/><circle cx="100" cy="71.6" r="18.2" fill="#f6c9a0" stroke-width="3.5"/><path d="M81.8,70.3 q1.3,-19.5 18.2,-19.5 q16.9,0 18.2,19.5 q-15.6,-6.5 -26,-11.7 q-3.9,7.8 -10.4,11.7z" fill="#5a3b2a" stroke-width="3"/><circle cx="94.2" cy="71.9" r="2.6" fill="#3a3440" stroke="none"/><circle cx="105.8" cy="71.9" r="2.6" fill="#3a3440" stroke="none"/><ellipse cx="100" cy="81.2" rx="4.1" ry="3.5" fill="#3a3440" stroke-width="1"/><g transform="translate(94.25210779266531 94.6264988951778)"><rect x="-3" y="-30" width="6" height="34" rx="2" fill="#9aa3ad"/><ellipse cx="0" cy="-34" rx="7" ry="5" fill="#9aa3ad"/></g><rect x="40" y="150" width="120" height="10" rx="3" fill="#e0b07a"/><rect x="48" y="160" width="8" height="40" fill="#e0b07a"/><rect x="144" y="160" width="8" height="40" fill="#e0b07a"/><ellipse cx="100" cy="148" rx="30" ry="8.4" fill="#ffffff"/><ellipse cx="100" cy="147" rx="21" ry="5.4" fill="#eef0f2" stroke-width="2"/><ellipse cx="100" cy="142" rx="18" ry="8" fill="#fbe7c6"/></g></svg>