<svg xmlns="http://www.w3.org/2000/svg" viewBox="0 0 560 250" width="560" height="250" font-family="sans-serif">
<rect width="560" height="250" fill="#fff"/>
<defs><marker id="genaiextra0024mf57c00" viewBox="0 0 10 10" refX="9" refY="5" markerWidth="7" markerHeight="7" orient="auto-start-reverse"><path d="M0,0 L10,5 L0,10 z" fill="#f57c00"/></marker></defs>
<rect x="20" y="40" width="60" height="34" rx="0" fill="#eceff1" stroke="#607d8b" stroke-width="1.2" />
<text x="50" y="58" font-size="13" text-anchor="middle" dominant-baseline="middle" fill="#222" font-weight="bold" >年齢</text>
<rect x="80" y="40" width="100" height="34" rx="0" fill="#eceff1" stroke="#607d8b" stroke-width="1.2" />
<text x="130" y="58" font-size="13" text-anchor="middle" dominant-baseline="middle" fill="#222" font-weight="bold" >郵便番号</text>
<rect x="180" y="40" width="70" height="34" rx="0" fill="#eceff1" stroke="#607d8b" stroke-width="1.2" />
<text x="215" y="58" font-size="13" text-anchor="middle" dominant-baseline="middle" fill="#222" font-weight="bold" >病名</text>
<rect x="20" y="74" width="60" height="34" rx="0" fill="#fff" stroke="#607d8b" stroke-width="1.2" />
<text x="50" y="92" font-size="13" text-anchor="middle" dominant-baseline="middle" fill="#222" >34</text>
<rect x="80" y="74" width="100" height="34" rx="0" fill="#fff" stroke="#607d8b" stroke-width="1.2" />
<text x="130" y="92" font-size="13" text-anchor="middle" dominant-baseline="middle" fill="#222" >1500012</text>
<rect x="180" y="74" width="70" height="34" rx="0" fill="#fff" stroke="#607d8b" stroke-width="1.2" />
<text x="215" y="92" font-size="13" text-anchor="middle" dominant-baseline="middle" fill="#222" >かぜ</text>
<rect x="20" y="108" width="60" height="34" rx="0" fill="#fff" stroke="#607d8b" stroke-width="1.2" />
<text x="50" y="126" font-size="13" text-anchor="middle" dominant-baseline="middle" fill="#222" >36</text>
<rect x="80" y="108" width="100" height="34" rx="0" fill="#fff" stroke="#607d8b" stroke-width="1.2" />
<text x="130" y="126" font-size="13" text-anchor="middle" dominant-baseline="middle" fill="#222" >1500031</text>
<rect x="180" y="108" width="70" height="34" rx="0" fill="#fff" stroke="#607d8b" stroke-width="1.2" />
<text x="215" y="126" font-size="13" text-anchor="middle" dominant-baseline="middle" fill="#222" >胃炎</text>
<rect x="20" y="142" width="60" height="34" rx="0" fill="#fff" stroke="#607d8b" stroke-width="1.2" />
<text x="50" y="160" font-size="13" text-anchor="middle" dominant-baseline="middle" fill="#222" >38</text>
<rect x="80" y="142" width="100" height="34" rx="0" fill="#fff" stroke="#607d8b" stroke-width="1.2" />
<text x="130" y="160" font-size="13" text-anchor="middle" dominant-baseline="middle" fill="#222" >1500044</text>
<rect x="180" y="142" width="70" height="34" rx="0" fill="#fff" stroke="#607d8b" stroke-width="1.2" />
<text x="215" y="160" font-size="13" text-anchor="middle" dominant-baseline="middle" fill="#222" >かぜ</text>
<line x1="256" y1="108" x2="296" y2="108" stroke="#f57c00" stroke-width="3" marker-end="url(#genaiextra0024mf57c00)"/>
<rect x="300" y="40" width="60" height="34" rx="0" fill="#eceff1" stroke="#607d8b" stroke-width="1.2" />
<text x="330" y="58" font-size="13" text-anchor="middle" dominant-baseline="middle" fill="#222" font-weight="bold" >年齢</text>
<rect x="360" y="40" width="100" height="34" rx="0" fill="#eceff1" stroke="#607d8b" stroke-width="1.2" />
<text x="410" y="58" font-size="13" text-anchor="middle" dominant-baseline="middle" fill="#222" font-weight="bold" >郵便番号</text>
<rect x="460" y="40" width="70" height="34" rx="0" fill="#eceff1" stroke="#607d8b" stroke-width="1.2" />
<text x="495" y="58" font-size="13" text-anchor="middle" dominant-baseline="middle" fill="#222" font-weight="bold" >病名</text>
<rect x="300" y="74" width="60" height="34" rx="0" fill="#ffcc80" stroke="#607d8b" stroke-width="1.2" />
<text x="330" y="92" font-size="13" text-anchor="middle" dominant-baseline="middle" fill="#222" font-weight="bold" >30代</text>
<rect x="360" y="74" width="100" height="34" rx="0" fill="#ffcc80" stroke="#607d8b" stroke-width="1.2" />
<text x="410" y="92" font-size="13" text-anchor="middle" dominant-baseline="middle" fill="#222" font-weight="bold" >150****</text>
<rect x="460" y="74" width="70" height="34" rx="0" fill="#fff" stroke="#607d8b" stroke-width="1.2" />
<text x="495" y="92" font-size="13" text-anchor="middle" dominant-baseline="middle" fill="#222" >かぜ</text>
<rect x="300" y="108" width="60" height="34" rx="0" fill="#ffcc80" stroke="#607d8b" stroke-width="1.2" />
<text x="330" y="126" font-size="13" text-anchor="middle" dominant-baseline="middle" fill="#222" font-weight="bold" >30代</text>
<rect x="360" y="108" width="100" height="34" rx="0" fill="#ffcc80" stroke="#607d8b" stroke-width="1.2" />
<text x="410" y="126" font-size="13" text-anchor="middle" dominant-baseline="middle" fill="#222" font-weight="bold" >150****</text>
<rect x="460" y="108" width="70" height="34" rx="0" fill="#fff" stroke="#607d8b" stroke-width="1.2" />
<text x="495" y="126" font-size="13" text-anchor="middle" dominant-baseline="middle" fill="#222" >胃炎</text>
<rect x="300" y="142" width="60" height="34" rx="0" fill="#ffcc80" stroke="#607d8b" stroke-width="1.2" />
<text x="330" y="160" font-size="13" text-anchor="middle" dominant-baseline="middle" fill="#222" font-weight="bold" >30代</text>
<rect x="360" y="142" width="100" height="34" rx="0" fill="#ffcc80" stroke="#607d8b" stroke-width="1.2" />
<text x="410" y="160" font-size="13" text-anchor="middle" dominant-baseline="middle" fill="#222" font-weight="bold" >150****</text>
<rect x="460" y="142" width="70" height="34" rx="0" fill="#fff" stroke="#607d8b" stroke-width="1.2" />
<text x="495" y="160" font-size="13" text-anchor="middle" dominant-baseline="middle" fill="#222" >かぜ</text>
<circle cx="530" cy="34" r="15" fill="#f57c00" stroke="#fff" stroke-width="2" />
<text x="530" y="35" font-size="19.95" text-anchor="middle" dominant-baseline="middle" fill="#fff" font-weight="bold">?</text>
<text x="280" y="200" font-size="12" text-anchor="middle" dominant-baseline="middle" fill="#f57c00" font-weight="bold" style="paint-order:stroke;stroke:#fff;stroke-width:4px;stroke-linejoin:round" >同じ属性の組合せを持つ人が必ずk人以上（この例はk=3）</text>
<text x="280" y="222" font-size="12" text-anchor="middle" dominant-baseline="middle" fill="#222" style="paint-order:stroke;stroke:#fff;stroke-width:4px;stroke-linejoin:round" >→ 個人を特定しにくい</text>
</svg>
