<svg xmlns="http://www.w3.org/2000/svg" viewBox="0 0 540 270" width="540" height="270" font-family="sans-serif">
<rect width="540" height="270" fill="#fff"/>
<rect x="230" y="20" width="80" height="36" rx="6" fill="#fff" stroke="#37474f" stroke-width="2" />
<text x="270" y="38" font-size="13" text-anchor="middle" dominant-baseline="middle" fill="#222" >問題</text>
<line x1="270" y1="56" x2="100" y2="90" stroke="#37474f" stroke-width="1.5"/>
<rect x="55" y="90" width="90" height="40" rx="6" fill="#ffcc80" stroke="#f57c00" stroke-width="2" />
<text x="100" y="110" font-size="12" text-anchor="middle" dominant-baseline="middle" fill="#222" >案A（0.8）</text>
<line x1="270" y1="56" x2="270" y2="90" stroke="#37474f" stroke-width="1.5"/>
<rect x="225" y="90" width="90" height="40" rx="6" fill="#f5f5f5" stroke="#ccc" stroke-width="2" />
<text x="270" y="110" font-size="12" text-anchor="middle" dominant-baseline="middle" fill="#222" >案B（0.3）</text>
<line x1="262" y1="142" x2="278" y2="158" stroke="#d32f2f" stroke-width="3.5"/>
<line x1="262" y1="158" x2="278" y2="142" stroke="#d32f2f" stroke-width="3.5"/>
<line x1="270" y1="56" x2="440" y2="90" stroke="#37474f" stroke-width="1.5"/>
<rect x="395" y="90" width="90" height="40" rx="6" fill="#ffcc80" stroke="#f57c00" stroke-width="2" />
<text x="440" y="110" font-size="12" text-anchor="middle" dominant-baseline="middle" fill="#222" >案C（0.6）</text>
<line x1="100" y1="132" x2="60" y2="170" stroke="#37474f" stroke-width="1.5"/>
<rect x="20" y="170" width="80" height="32" rx="6" fill="#e3f2fd" stroke="#1976d2" stroke-width="2" />
<text x="60" y="186" font-size="11" text-anchor="middle" dominant-baseline="middle" fill="#222" >次の一手1</text>
<line x1="100" y1="132" x2="140" y2="170" stroke="#37474f" stroke-width="1.5"/>
<rect x="100" y="170" width="80" height="32" rx="6" fill="#e3f2fd" stroke="#1976d2" stroke-width="2" />
<text x="140" y="186" font-size="11" text-anchor="middle" dominant-baseline="middle" fill="#222" >次の一手2</text>
<line x1="440" y1="132" x2="400" y2="170" stroke="#37474f" stroke-width="1.5"/>
<rect x="360" y="170" width="80" height="32" rx="6" fill="#e3f2fd" stroke="#1976d2" stroke-width="2" />
<text x="400" y="186" font-size="11" text-anchor="middle" dominant-baseline="middle" fill="#222" >次の一手1</text>
<line x1="440" y1="132" x2="480" y2="170" stroke="#37474f" stroke-width="1.5"/>
<rect x="440" y="170" width="80" height="32" rx="6" fill="#e3f2fd" stroke="#1976d2" stroke-width="2" />
<text x="480" y="186" font-size="11" text-anchor="middle" dominant-baseline="middle" fill="#222" >次の一手2</text>
<text x="270" y="240" font-size="12" text-anchor="middle" dominant-baseline="middle" fill="#f57c00" font-weight="bold" style="paint-order:stroke;stroke:#fff;stroke-width:4px;stroke-linejoin:round" >複数の案を出して評価し、見込みのある案を選びながら探る</text>
<circle cx="520" cy="30" r="15" fill="#f57c00" stroke="#fff" stroke-width="2" />
<text x="520" y="31" font-size="19.95" text-anchor="middle" dominant-baseline="middle" fill="#fff" font-weight="bold">?</text>
</svg>
