<svg xmlns="http://www.w3.org/2000/svg" viewBox="0 0 200 200"><g stroke="#3a3440" stroke-width="4" stroke-linecap="round" stroke-linejoin="round"><rect x="0" y="0" width="200" height="200" fill="#2a2d4a" stroke-width="0" stroke="none"/><line x1="158" y1="100" x2="176" y2="100" stroke-width="5" stroke="#f7ce46"/><line x1="153.6" y1="122.2" x2="170.2" y2="129.1" stroke-width="5" stroke="#f7ce46"/><line x1="141" y1="141" x2="153.7" y2="153.7" stroke-width="5" stroke="#f7ce46"/><line x1="122.2" y1="153.6" x2="129.1" y2="170.2" stroke-width="5" stroke="#f7ce46"/><line x1="100" y1="158" x2="100" y2="176" stroke-width="5" stroke="#f7ce46"/><line x1="77.8" y1="153.6" x2="70.9" y2="170.2" stroke-width="5" stroke="#f7ce46"/><line x1="59" y1="141" x2="46.3" y2="153.7" stroke-width="5" stroke="#f7ce46"/><line x1="46.4" y1="122.2" x2="29.8" y2="129.1" stroke-width="5" stroke="#f7ce46"/><line x1="42" y1="100" x2="24" y2="100" stroke-width="5" stroke="#f7ce46"/><line x1="46.4" y1="77.8" x2="29.8" y2="70.9" stroke-width="5" stroke="#f7ce46"/><line x1="59" y1="59" x2="46.3" y2="46.3" stroke-width="5" stroke="#f7ce46"/><line x1="77.8" y1="46.4" x2="70.9" y2="29.8" stroke-width="5" stroke="#f7ce46"/><line x1="100" y1="42" x2="100" y2="24" stroke-width="5" stroke="#f7ce46"/><line x1="122.2" y1="46.4" x2="129.1" y2="29.8" stroke-width="5" stroke="#f7ce46"/><line x1="141" y1="59" x2="153.7" y2="46.3" stroke-width="5" stroke="#f7ce46"/><line x1="153.6" y1="77.8" x2="170.2" y2="70.9" stroke-width="5" stroke="#f7ce46"/><circle cx="100" cy="100" r="52" fill="#f7ce46" stroke-width="4"/><circle cx="110" cy="96" r="50" fill="#3a3440" stroke-width="4"/><polygon points="30,25 31.3,28.2 34.8,28.5 32.1,30.7 32.9,34 30,32.2 27.1,34 27.9,30.7 25.2,28.5 28.7,28.2" fill="#f7ce46" stroke-width="2.5"/><polygon points="170,165 171.3,168.2 174.8,168.5 172.1,170.7 172.9,174 170,172.2 167.1,174 167.9,170.7 165.2,168.5 168.7,168.2" fill="#f7ce46" stroke-width="2.5"/></g></svg>