<svg xmlns="http://www.w3.org/2000/svg" viewBox="0 0 320 240"><defs><linearGradient id="skydusk" x1="0" y1="0" x2="0" y2="1"><stop offset="0" stop-color="#f2a766"/><stop offset="1" stop-color="#fbe0a8"/></linearGradient></defs><g stroke="#3a3440" stroke-width="2" stroke-linecap="round" stroke-linejoin="round"><rect x="0" y="0" width="320" height="240" fill="url(#skydusk)" stroke="none"/><circle cx="280" cy="170" r="22" fill="#f28b5a"/><rect x="-2" y="190" width="324" height="52" fill="#b9b98a" stroke="none"/><g transform="translate(140 206) scale(1.3 1.3)"><path d="M-60 -92 L60 -92 L48 -108 L-48 -108 Z" fill="#5a4a44"/><rect x="-52" y="-92" width="104" height="8" fill="#8e5a3a"/><rect x="-48" y="-84" width="9" height="84" fill="#8e5a3a"/><rect x="39" y="-84" width="9" height="84" fill="#8e5a3a"/><rect x="-39" y="-84" width="78" height="84" fill="#3d3030"/><rect x="-39" y="-84" width="39" height="84" fill="#b88758"/><rect x="12" y="-84" width="27" height="84" fill="#b88758"/></g><g transform="translate(170 212) scale(-0.9 0.9)"><path d="M-14 -32.2 L-17 0 L17 0 L14 -32.2 Z" fill="#8b7a5a"/><ellipse cx="-11" cy="-1" rx="5" ry="2.5" fill="#2c2530"/><ellipse cx="14" cy="-1" rx="5" ry="2.5" fill="#2c2530"/><path d="M-8 -78 L8 -78 L16 -27.6 L-16 -27.6 Z" fill="#d9d2bf"/><path d="M-15 -33.1 L15 -33.1" stroke="#8b7a5a" stroke-width="3"/><circle cx="0" cy="-92" r="12.5" fill="#fbe3cf"/><path d="M-11.5 -95 Q-16.5 -116 -6 -122 Q4 -112 10.5 -97 Z" fill="#1d1a22"/><path d="M-12.5 -90 Q-13.5 -98 -3 -98" fill="#1d1a22"/><path d="M0 -93 h3.5 M6 -93 h3.5" stroke-width="1.8"/><path d="M4 -86 h2.4" stroke="#c24a4a" stroke-width="1.8"/><path d="M3.3 -75.2 L-18.2 -72.2 L-11.8 -56.7 L6.7 -66.8 Z" fill="#d9d2bf"/><circle cx="-22" cy="-60" r="3.2" fill="#fbe3cf"/></g><line x1="120" y1="130" x2="150" y2="130" stroke="#d8402e" stroke-width="4"/><polyline points="141.2,134.8 150,130 141.2,125.2" fill="none" stroke="#d8402e" stroke-width="4"/><g transform="translate(40 60) scale(1 1)"><path d="M-9 0 q4.5 -6 9 0 q4.5 -6 9 0" fill="none" stroke="#1d1a22" stroke-width="2.4"/></g><g transform="translate(70 44) scale(0.8 0.8)"><path d="M-9 0 q4.5 -6 9 0 q4.5 -6 9 0" fill="none" stroke="#1d1a22" stroke-width="2.4"/></g></g></svg>