<svg xmlns="http://www.w3.org/2000/svg" viewBox="0 0 200 200"><g stroke="#3a3440" stroke-width="4" stroke-linecap="round" stroke-linejoin="round"><path d="M60,30 h80 l10,150 h-100z" fill="#dde2e6" stroke-width="4"/><circle cx="84" cy="60" r="3" fill="#3a3440"/><circle cx="100" cy="60" r="3" fill="#3a3440"/><circle cx="116" cy="60" r="3" fill="#3a3440"/><circle cx="84" cy="82" r="3" fill="#3a3440"/><circle cx="100" cy="82" r="3" fill="#3a3440"/><circle cx="116" cy="82" r="3" fill="#3a3440"/><circle cx="84" cy="104" r="3" fill="#3a3440"/><circle cx="100" cy="104" r="3" fill="#3a3440"/><circle cx="116" cy="104" r="3" fill="#3a3440"/><circle cx="84" cy="126" r="3" fill="#3a3440"/><circle cx="100" cy="126" r="3" fill="#3a3440"/><circle cx="116" cy="126" r="3" fill="#3a3440"/><circle cx="84" cy="148" r="3" fill="#3a3440"/><circle cx="100" cy="148" r="3" fill="#3a3440"/><circle cx="116" cy="148" r="3" fill="#3a3440"/><rect x="80" y="20" width="40" height="14" rx="4" fill="#9aa3ad" stroke-width="3"/><path d="M130,80 l40,-20 l20,30 l-40,20z" fill="#f7ce46" stroke-width="3.5"/><circle cx="160" cy="80" r="4" fill="#e8c15a" stroke-width="2"/><line x1="70" y1="186" x2="74" y2="192" stroke-width="3" stroke="#e8c15a"/><line x1="84" y1="186" x2="88" y2="192" stroke-width="3" stroke="#e8c15a"/><line x1="100" y1="186" x2="104" y2="192" stroke-width="3" stroke="#e8c15a"/><line x1="116" y1="186" x2="120" y2="192" stroke-width="3" stroke="#e8c15a"/><line x1="130" y1="186" x2="134" y2="192" stroke-width="3" stroke="#e8c15a"/><line x1="40" y1="192" x2="160" y2="192" stroke-width="3"/></g></svg>