<svg xmlns="http://www.w3.org/2000/svg" viewBox="0 0 200 200"><g stroke="#3a3440" stroke-width="4" stroke-linecap="round" stroke-linejoin="round"><g transform="translate(60 188) scale(1.2)" stroke-width="3.33"><line x1="-6" y1="-37.5" x2="-11.9" y2="-4" stroke-width="9" stroke="#4a4452"/><circle cx="-11.9" cy="-4" r="5" fill="#3a3440" stroke="none"/><line x1="6" y1="-37.5" x2="11.9" y2="-4" stroke-width="9" stroke="#4a4452"/><circle cx="11.9" cy="-4" r="5" fill="#3a3440" stroke="none"/><rect x="-12" y="-69.5" width="24" height="34" rx="8" fill="#6cc070" stroke-width="3.3"/><line x1="-11" y1="-65.5" x2="-20.5" y2="-41" stroke-width="8" stroke="#6cc070"/><polyline points="11,-65.5 24,-70 40,-76" fill="none" stroke-width="8" stroke="#6cc070"/><circle cx="-20.5" cy="-41" r="5" fill="#f6c9a0" stroke-width="2.1"/><circle cx="40" cy="-76" r="5" fill="#f6c9a0" stroke-width="2.1"/><circle cx="0" cy="-89.5" r="14" fill="#f6c9a0" stroke-width="2.9"/><path d="M-14,-90.5 q1,-15 14,-15 q13,0 14,15 q-12,-5 -20,-9 q-3,6 -8,9z" fill="#5a3b2a" stroke-width="2.5"/><g transform="translate(0 -89.5)"><circle cx="-5.2" cy="0.2" r="2.3" fill="#3a3440" stroke="none"/><circle cx="5.2" cy="0.2" r="2.3" fill="#3a3440" stroke="none"/><path d="M-4.5,6.3 q4.5,4.5 9,0" fill="none" stroke-width="2.1"/></g></g><circle cx="108" cy="90" r="9" fill="#e8c15a" stroke-width="3"/><circle cx="108" cy="90" r="5.4" fill="none" stroke-width="2"/><rect x="110" y="120" width="60" height="60" rx="6" fill="#fde2e0"/><rect x="126" y="118" width="28" height="6" rx="2" fill="#3a3440" stroke-width="0"/><path d="M140,167.2 C122.4,156 127.2,141.6 140,149.6 C152.8,141.6 157.6,156 140,167.2 Z" fill="#e8574f" stroke-width="3"/><line x1="10" y1="188" x2="190" y2="188" stroke-width="3"/></g></svg>