<svg xmlns="http://www.w3.org/2000/svg" viewBox="0 0 200 200"><g stroke="#3a3440" stroke-width="4" stroke-linecap="round" stroke-linejoin="round"><rect x="0" y="0" width="200" height="188" fill="#f6ecd6" stroke-width="0" stroke="none"/><rect x="20" y="130" width="40" height="30" rx="2" fill="#e8574f" stroke-width="3" transform="rotate(20 40 145)"/><rect x="70" y="150" width="40" height="12" rx="2" fill="#4a90d9" stroke-width="3" transform="rotate(-12 90 156)"/><circle cx="130" cy="160" r="12" fill="#f59e42" stroke-width="3"/><path d="M140,110 l20,-8 l14,16 l-20,10z" fill="#ffffff" stroke-width="3"/><path d="M40,100 q20,-10 40,6 l-6,10 q-16,-10 -30,-4z" fill="#f4a3b8" stroke-width="3"/><rect x="110" y="60" width="20" height="30" rx="2" fill="#f7ce46" stroke-width="3" transform="rotate(40 120 75)"/><path d="M160,170 q10,-10 20,0 q-10,10 -20,0z" fill="#9fd49a" stroke-width="2.5"/><line x1="0" y1="188" x2="200" y2="188" stroke-width="3"/><path d="M60,40 l6,-10 M80,36 v-12 M100,40 l-6,-10" fill="none" stroke-width="3" stroke="#9aa3ad"/></g></svg>